<?xml version="1.0" encoding="iso-8859-1"?>
<!-- Generator: Adobe Illustrator 19.2.0, SVG Export Plug-In . SVG Version: 6.00 Build 0)  -->
<svg xmlns="http://www.w3.org/2000/svg" xmlns:xlink="http://www.w3.org/1999/xlink" version="1.1" id="Layer_1" x="0px" y="0px" viewBox="0 0 40 40" style="enable-background:new 0 0 40 40;" xml:space="preserve">
<g>
	<circle style="fill:#DFF0FE;" cx="32" cy="10" r="4.531"/>
	<g>
		<path style="fill:#4788C7;" d="M32,5.938c2.24,0,4.062,1.822,4.062,4.063S34.24,14.063,32,14.063S27.937,12.24,27.937,10    S29.76,5.938,32,5.938 M32,5c-2.761,0-5,2.239-5,5s2.239,5,5,5s5-2.239,5-5S34.761,5,32,5L32,5z"/>
	</g>
</g>
<g>
	<circle style="fill:#DFF0FE;" cx="8" cy="10" r="4.531"/>
	<g>
		<path style="fill:#4788C7;" d="M8,5.938c2.24,0,4.062,1.822,4.062,4.063S10.24,14.063,8,14.063S3.937,12.24,3.937,10    S5.76,5.938,8,5.938 M8,5c-2.761,0-5,2.239-5,5s2.239,5,5,5s5-2.239,5-5S10.761,5,8,5L8,5z"/>
	</g>
</g>
<g>
	<circle style="fill:#DFF0FE;" cx="20" cy="6" r="4.531"/>
	<g>
		<path style="fill:#4788C7;" d="M20,1.938c2.24,0,4.062,1.822,4.062,4.063S22.24,10.063,20,10.063S15.937,8.24,15.937,6    S17.76,1.938,20,1.938 M20,1c-2.761,0-5,2.239-5,5s2.239,5,5,5s5-2.239,5-5S22.761,1,20,1L20,1z"/>
	</g>
</g>
<g>
	<path style="fill:#98CCFD;" d="M20,38.5c-10.512,0-17.998-3.136-19.5-3.818V25c0-4.136,3.364-7.5,7.5-7.5   c1.495,0,2.939,0.439,4.179,1.271l0.536,0.361l0.214-0.61C13.981,15.518,16.822,13.5,20,13.5s6.019,2.018,7.071,5.022l0.214,0.61   l0.536-0.361C29.061,17.939,30.505,17.5,32,17.5c4.136,0,7.5,3.364,7.5,7.5v9.682C37.998,35.364,30.512,38.5,20,38.5z"/>
	<path style="fill:#4788C7;" d="M20,14c2.965,0,5.617,1.884,6.6,4.687l0.428,1.221l1.074-0.722C29.256,18.41,30.604,18,32,18   c3.86,0,7,3.14,7,7v9.357C37.015,35.22,29.851,38,20,38S2.985,35.22,1,34.357V25c0-3.86,3.14-7,7-7c1.396,0,2.744,0.41,3.899,1.186   l1.074,0.722l0.428-1.221C14.383,15.884,17.035,14,20,14 M20,13c-3.49,0-6.451,2.239-7.543,5.356C11.183,17.5,9.65,17,8,17   c-4.418,0-8,3.582-8,8c0,0,0,9.545,0,10c0,0,7.996,4,20,4s20-4,20-4c0-0.455,0-10,0-10c0-4.418-3.582-8-8-8   c-1.65,0-3.183,0.5-4.457,1.356C26.451,15.239,23.49,13,20,13L20,13z"/>
</g>
<g>
	<circle style="fill:#FFFFFF;" cx="20" cy="24" r="4.531"/>
	<g>
		<path style="fill:#4788C7;" d="M20,19.938c2.24,0,4.062,1.822,4.062,4.063S22.24,28.063,20,28.063S15.937,26.24,15.937,24    S17.76,19.938,20,19.938 M20,19c-2.761,0-5,2.239-5,5s2.239,5,5,5s5-2.239,5-5S22.761,19,20,19L20,19z"/>
	</g>
</g>
<g>
	<path style="fill:#DFF0FE;" d="M20,38.47c-2.468,0-4.964-0.196-7.427-0.583c0.486-4.162,3.67-7.356,7.427-7.356   s6.94,3.194,7.427,7.356C24.964,38.273,22.468,38.47,20,38.47z"/>
	<g>
		<path style="fill:#4788C7;" d="M20,31.061c3.335,0,6.184,2.734,6.826,6.38c-2.267,0.331-4.558,0.498-6.826,0.498    s-4.559-0.168-6.826-0.498C13.816,33.795,16.665,31.061,20,31.061 M20,30c-4.233,0-7.693,3.674-8,8.33    c2.393,0.402,5.075,0.67,8,0.67s5.607-0.268,8-0.67C27.693,33.674,24.233,30,20,30L20,30z"/>
	</g>
</g>
</svg>
