<?xml version="1.0" encoding="iso-8859-1"?>
<!-- Generator: Adobe Illustrator 22.1.0, SVG Export Plug-In . SVG Version: 6.00 Build 0)  -->
<svg xmlns="http://www.w3.org/2000/svg" xmlns:xlink="http://www.w3.org/1999/xlink" version="1.1" id="Layer_1" x="0px" y="0px" viewBox="0 0 48 48" style="enable-background:new 0 0 48 48;" xml:space="preserve">
<rect x="14" y="24" style="fill:#90A4AE;" width="20" height="2"/>
<circle style="fill:#FFB74D;" cx="24" cy="10" r="3"/>
<circle style="fill:#FFB74D;" cx="7" cy="13" r="3"/>
<path style="fill:#90A4AE;" d="M10,37H7c-3.859,0-7-3.14-7-7v-8h2v8c0,2.757,2.243,5,5,5h3V37z"/>
<path style="fill:#2196F3;" d="M29,24H19v-4c0-2.761,2.239-5,5-5l0,0c2.761,0,5,2.239,5,5V24z"/>
<path style="fill:#4FC3F7;" d="M14,28h-4c0,0,0-6.802,0-7c0-1.657-1.343-3-3-3s-3,1.343-3,3c0,0.248,0.01,9.249,0.01,9.249  C4.14,31.804,5.44,33,7,33h6l1,8h3V31C17,29.346,15.654,28,14,28z"/>
<circle style="fill:#FFB74D;" cx="41" cy="13" r="3"/>
<path style="fill:#90A4AE;" d="M38,37h3c3.859,0,7-3.14,7-7v-8h-2v8c0,2.757-2.243,5-5,5h-3V37z"/>
<path style="fill:#4FC3F7;" d="M34,28h4c0,0,0-6.802,0-7c0-1.657,1.343-3,3-3s3,1.343,3,3c0,0.248-0.01,9.249-0.01,9.249  C43.86,31.804,42.56,33,41,33h-6l-1,8h-3V31C31,29.346,32.346,28,34,28z"/>
</svg>
