<?xml version="1.0" encoding="UTF-8"?>
<svg xmlns="http://www.w3.org/2000/svg" xmlns:xlink="http://www.w3.org/1999/xlink" viewBox="0 0 50 50" version="1.1" fill="#000000"><g id="surface1" fill="#000000"><path style=" " d="M 6.8125 3 C 6.335938 3.089844 5.992188 3.511719 6 4 L 6 6 L 0 6 L 0 8 L 6 8 L 6 10 C 6 10.550781 6.449219 11 7 11 L 10 11 C 10.550781 11 11 10.550781 11 10 L 11 4 C 11 3.449219 10.550781 3 10 3 L 7 3 C 6.96875 3 6.9375 3 6.90625 3 C 6.875 3 6.84375 3 6.8125 3 Z M 39.8125 3 C 39.335938 3.089844 38.992188 3.511719 39 4 L 39 10 C 39 10.550781 39.449219 11 40 11 L 43 11 C 43.550781 11 44 10.550781 44 10 L 44 8 L 50 8 L 50 6 L 44 6 L 44 4 C 44 3.449219 43.550781 3 43 3 L 40 3 C 39.96875 3 39.9375 3 39.90625 3 C 39.875 3 39.84375 3 39.8125 3 Z M 8 5 L 9 5 L 9 9 L 8 9 Z M 41 5 L 42 5 L 42 9 L 41 9 Z M 12 6 L 12 8 L 38 8 L 38 6 Z M 6.8125 18 C 6.335938 18.089844 5.992188 18.511719 6 19 L 6 21 L 0 21 L 0 23 L 6 23 L 6 25 C 6 25.550781 6.449219 26 7 26 L 10 26 C 10.550781 26 11 25.550781 11 25 L 11 19 C 11 18.449219 10.550781 18 10 18 L 7 18 C 6.96875 18 6.9375 18 6.90625 18 C 6.875 18 6.84375 18 6.8125 18 Z M 39.8125 18 C 39.335938 18.089844 38.992188 18.511719 39 19 L 39 25 C 39 25.550781 39.449219 26 40 26 L 43 26 C 43.550781 26 44 25.550781 44 25 L 44 23 L 50 23 L 50 21 L 44 21 L 44 19 C 44 18.449219 43.550781 18 43 18 L 40 18 C 39.96875 18 39.9375 18 39.90625 18 C 39.875 18 39.84375 18 39.8125 18 Z M 8 20 L 9 20 L 9 24 L 8 24 Z M 41 20 L 42 20 L 42 24 L 41 24 Z M 12 21 L 12 23 C 13.277344 23 14.253906 23.421875 15.25 23.90625 C 16.246094 24.390625 17.261719 25 18.59375 25 C 19.925781 25 21.136719 24.40625 22.25 23.90625 C 23.363281 23.40625 24.402344 23 25 23 C 25.597656 23 26.707031 23.40625 27.84375 23.90625 C 28.980469 24.40625 30.136719 25 31.40625 25 C 32.707031 25 33.710938 24.390625 34.71875 23.90625 C 35.726563 23.421875 36.722656 23 38 23 L 38 21 C 36.277344 21 34.914063 21.578125 33.84375 22.09375 C 32.773438 22.609375 32.003906 23 31.40625 23 C 30.875 23 29.765625 22.59375 28.625 22.09375 C 27.484375 21.59375 26.300781 21 25 21 C 23.699219 21 22.546875 21.59375 21.4375 22.09375 C 20.328125 22.59375 19.261719 23 18.59375 23 C 17.925781 23 17.179688 22.609375 16.125 22.09375 C 15.070313 21.578125 13.722656 21 12 21 Z M 19 32 C 16.253906 32 14 34.253906 14 37 L 14 38 L 12 38 L 12 40 L 14 40 L 14 41 C 14 43.746094 16.253906 46 19 46 L 31 46 C 33.746094 46 36 43.746094 36 41 L 36 40 L 38 40 L 38 38 L 36 38 L 36 37 C 36 34.253906 33.746094 32 31 32 Z M 19 34 L 31 34 C 32.65625 34 34 35.34375 34 37 L 34 41 C 34 42.65625 32.65625 44 31 44 L 30 44 L 30 35 L 28 35 L 28 44 L 22 44 L 22 35 L 20 35 L 20 44 L 19 44 C 17.34375 44 16 42.65625 16 41 L 16 37 C 16 35.34375 17.34375 34 19 34 Z M 6.8125 35 C 6.335938 35.089844 5.992188 35.511719 6 36 L 6 38 L 0 38 L 0 40 L 6 40 L 6 42 C 6 42.550781 6.449219 43 7 43 L 10 43 C 10.550781 43 11 42.550781 11 42 L 11 36 C 11 35.449219 10.550781 35 10 35 L 7 35 C 6.96875 35 6.9375 35 6.90625 35 C 6.875 35 6.84375 35 6.8125 35 Z M 39.8125 35 C 39.335938 35.089844 38.992188 35.511719 39 36 L 39 42 C 39 42.550781 39.449219 43 40 43 L 43 43 C 43.550781 43 44 42.550781 44 42 L 44 40 L 50 40 L 50 38 L 44 38 L 44 36 C 44 35.449219 43.550781 35 43 35 L 40 35 C 39.96875 35 39.9375 35 39.90625 35 C 39.875 35 39.84375 35 39.8125 35 Z M 8 37 L 9 37 L 9 41 L 8 41 Z M 41 37 L 42 37 L 42 41 L 41 41 Z " fill="#000000"/></g></svg>
