<?xml version="1.0" encoding="utf-8"?>
<svg xmlns="http://www.w3.org/2000/svg" viewBox="0 0 50 50" fill="#000000"><path d="M 3 2 A 1.0001 1.0001 0 0 0 2 3 L 2 7 A 1.0001 1.0001 0 0 0 3 8 L 4 8 L 4 39 C 4 39.55 4.45 40 5 40 L 24 40 L 24 42.1875 C 22.84267 42.604859 22 43.706841 22 45 C 22 46.64501 23.35499 48 25 48 C 26.64501 48 28 46.64501 28 45 C 28 43.706841 27.15733 42.604859 26 42.1875 L 26 40 L 28 40 C 28 39.32 28.059922 38.65 28.169922 38 L 25.154297 38 A 1.0001 1.0001 0 0 0 24.984375 37.986328 A 1.0001 1.0001 0 0 0 24.839844 38 L 6 38 L 6 8 L 44 8 L 44 28.689453 C 44.7 28.929453 45.37 29.229609 46 29.599609 L 46 8 L 47 8 A 1.0001 1.0001 0 0 0 48 7 L 48 3 A 1.0001 1.0001 0 0 0 47 2 L 3 2 z M 4 4 L 46 4 L 46 6 L 4 6 L 4 4 z M 19 14 A 1.0001 1.0001 0 0 0 18 15 L 18 20 A 1.0001 1.0001 0 0 0 19 21 L 24 21 A 1.0001 1.0001 0 0 0 25 20 C 25 16.698375 22.301625 14 19 14 z M 20 16.199219 C 21.39076 16.563133 22.436867 17.60924 22.800781 19 L 20 19 L 20 16.199219 z M 16 17 C 12.698375 17 10 19.698375 10 23 C 10 26.301625 12.698375 29 16 29 C 19.301625 29 22 26.301625 22 23 A 1.0001 1.0001 0 0 0 21 22 L 17 22 L 17 18 A 1.0001 1.0001 0 0 0 16 17 z M 28 17 A 1.0001 1.0001 0 1 0 28 19 L 39 19 A 1.0001 1.0001 0 1 0 39 17 L 28 17 z M 15 19.199219 L 15 23 A 1.0001 1.0001 0 0 0 16 24 L 19.800781 24 C 19.351259 25.717926 17.865168 27 16 27 C 13.779625 27 12 25.220375 12 23 C 12 21.134832 13.282074 19.648741 15 19.199219 z M 28 22 A 1.0001 1.0001 0 1 0 28 24 L 39 24 A 1.0001 1.0001 0 1 0 39 22 L 28 22 z M 40 30 C 34.5 30 30 34.5 30 40 C 30 45.5 34.5 50 40 50 C 45.5 50 50 45.5 50 40 C 50 34.5 45.5 30 40 30 z M 40 32 C 44.4 32 48 35.6 48 40 C 48 44.4 44.4 48 40 48 C 35.6 48 32 44.4 32 40 C 32 35.6 35.6 32 40 32 z M 39 34 L 39 39.5 L 35.400391 42.199219 L 36.599609 43.800781 L 41 40.5 L 41 34 L 39 34 z M 24.943359 44.011719 A 1.0001 1.0001 0 0 0 25.058594 44.011719 C 25.592159 44.042513 26 44.456843 26 45 C 26 45.564129 25.564129 46 25 46 C 24.435871 46 24 45.564129 24 45 C 24 44.45617 24.408812 44.041574 24.943359 44.011719 z" fill="#000000"/></svg>
