<?xml version="1.0" encoding="UTF-8"?>
<svg xmlns="http://www.w3.org/2000/svg" xmlns:xlink="http://www.w3.org/1999/xlink" viewBox="0 0 64 64" version="1.1" fill="#000000"><g id="surface1" fill="#000000"><path style=" " d="M 26 0 C 23.800781 0 20.648438 0.691406 18.6875 2.007813 C 14.96875 2.140625 12.421875 4.761719 12 8.898438 C 11.75 11.460938 11.980469 13.289063 12.140625 14.5 C 12.191406 14.921875 12.25 15.398438 12.230469 15.539063 L 12.140625 16.109375 C 11.980469 16.109375 11.832031 16.140625 11.710938 16.171875 C 10.800781 16.410156 10.171875 17.21875 9.921875 18.429688 C 9.71875 19.410156 9.789063 20.597656 10.097656 21.78125 C 10.640625 23.769531 11.761719 25.269531 12.988281 25.730469 C 13.621094 27.671875 14.550781 29.589844 15.710938 31.328125 L 6.492188 36.671875 C 2.492188 38.980469 0 43.300781 0 47.921875 L 0 55 C 0 56.648438 1.351563 58 3 58 L 28.121094 58 C 28.039063 58.210938 28 58.441406 28 58.671875 L 28 62 C 28 63.101563 28.898438 64 30 64 L 34.597656 64 C 34.839844 64 35.070313 63.910156 35.25 63.761719 L 36.238281 62.902344 C 36.429688 62.742188 36.550781 62.519531 36.578125 62.28125 L 36.738281 61.179688 L 38.359375 60.960938 C 39.058594 60.859375 39.609375 60.308594 39.710938 59.609375 L 39.929688 57.980469 L 41.890625 57.671875 C 42.210938 57.621094 42.519531 57.460938 42.75 57.230469 L 47.300781 52.679688 L 53.03125 56.121094 C 54.417969 56.960938 56.257813 56.511719 57.109375 55.140625 L 63.3125 45.21875 C 63.621094 44.730469 63.769531 44.179688 63.769531 43.628906 C 63.769531 42.851563 63.46875 42.089844 62.890625 41.511719 L 51.402344 30.019531 C 50.410156 29.03125 48.878906 28.847656 47.6875 29.597656 L 40.761719 33.921875 L 36.289063 31.328125 C 37.449219 29.589844 38.378906 27.671875 39.011719 25.730469 C 40.238281 25.269531 41.359375 23.769531 41.902344 21.78125 C 42.101563 21.03125 42.1875 20.320313 42.1875 19.652344 C 42.1875 17.859375 41.5 16.488281 40.289063 16.171875 C 40.167969 16.140625 40.03125 16.109375 39.859375 16.109375 C 39.71875 15.039063 39.449219 14.039063 38.9375 12.671875 C 38.929688 12.628906 38.921875 12.589844 38.910156 12.5625 C 39.261719 12.589844 39.820313 12.730469 40.289063 12.921875 C 40.628906 13.070313 41.03125 13.007813 41.3125 12.769531 C 41.601563 12.53125 41.730469 12.148438 41.652344 11.789063 C 40.03125 4.410156 34.558594 0 27 0 Z M 26 2 L 27 2 C 33.070313 2 37.449219 5.101563 39.25 10.578125 C 38.558594 10.511719 37.847656 10.589844 37.347656 11.0625 C 36.96875 11.429688 36.609375 12.121094 37.070313 13.359375 C 37.679688 15.039063 37.902344 16.03125 37.96875 17.429688 C 37.992188 17.789063 38.191406 18.109375 38.511719 18.28125 C 38.828125 18.4375 39.210938 18.421875 39.511719 18.21875 C 39.679688 18.121094 39.757813 18.109375 39.78125 18.097656 L 39.789063 18.097656 C 40.027344 18.21875 40.449219 19.441406 39.96875 21.261719 C 39.71875 22.179688 39.359375 22.839844 39.019531 23.261719 C 38.691406 23.679688 38.378906 23.878906 38.230469 23.878906 C 37.789063 23.878906 37.398438 24.167969 37.269531 24.597656 C 36.679688 26.578125 35.761719 28.578125 34.570313 30.328125 C 34.199219 30.890625 33.800781 31.429688 33.359375 31.9375 C 31.339844 34.347656 28.78125 36 26 36 C 23.21875 36 20.660156 34.347656 18.640625 31.9375 C 18.199219 31.429688 17.800781 30.890625 17.429688 30.328125 C 16.238281 28.578125 15.320313 26.578125 14.730469 24.597656 C 14.601563 24.167969 14.210938 23.878906 13.769531 23.878906 C 13.46875 23.878906 12.53125 23.101563 12.03125 21.261719 C 11.800781 20.390625 11.75 19.5 11.878906 18.828125 C 12 18.269531 12.191406 18.109375 12.210938 18.097656 C 12.222656 18.097656 12.300781 18.109375 12.488281 18.21875 C 12.789063 18.421875 13.171875 18.4375 13.488281 18.28125 C 13.808594 18.109375 14.007813 17.789063 14.03125 17.429688 C 14.050781 16.910156 14.109375 16.390625 14.199219 15.890625 C 14.269531 15.460938 14.210938 14.980469 14.121094 14.25 C 13.980469 13.128906 13.761719 11.429688 14 9.101563 C 14.308594 5.910156 16.191406 4 19.019531 4 C 19.230469 4 19.4375 3.929688 19.621094 3.800781 C 20.988281 2.769531 23.730469 2 26 2 Z M 20.171875 8.125 C 19.582031 8.179688 19.027344 8.492188 18.683594 9.015625 L 17.078125 11.449219 C 16.773438 11.910156 16.902344 12.53125 17.363281 12.835938 C 17.53125 12.949219 17.722656 13 17.910156 13 C 18.238281 13 18.554688 12.84375 18.75 12.550781 L 20.355469 10.117188 L 21.917969 10.878906 C 24.765625 12.265625 27.941406 13 31.109375 13 L 33.667969 13 C 34.21875 13 34.667969 12.550781 34.667969 12 C 34.667969 11.449219 34.21875 11 33.667969 11 L 31.109375 11 C 28.246094 11 25.367188 10.335938 22.792969 9.078125 L 21.230469 8.320313 C 20.890625 8.152344 20.523438 8.09375 20.171875 8.125 Z M 49.28125 31.140625 C 49.539063 31.140625 49.789063 31.238281 49.988281 31.429688 L 61.480469 42.921875 C 61.808594 43.25 61.871094 43.761719 61.621094 44.160156 L 55.421875 54.078125 C 55.128906 54.539063 54.519531 54.679688 54.0625 54.402344 L 48.328125 50.96875 C 47.539063 50.492188 46.53125 50.621094 45.878906 51.269531 L 41.4375 55.710938 L 39.300781 56.050781 C 38.621094 56.160156 38.082031 56.710938 37.988281 57.390625 L 37.769531 59.019531 L 36.152344 59.238281 C 35.449219 59.332031 34.902344 59.878906 34.800781 60.570313 L 34.652344 61.628906 L 34.230469 62 L 30 62 L 30 58.671875 L 32.671875 56 L 41.640625 47.019531 C 42.289063 46.371094 42.417969 45.371094 41.9375 44.578125 L 38.5 38.847656 C 38.230469 38.390625 38.371094 37.78125 38.828125 37.488281 L 40.8125 36.25 L 42.71875 35.0625 L 48.75 31.289063 C 48.910156 31.1875 49.097656 31.140625 49.28125 31.140625 Z M 16.910156 32.9375 C 19.332031 35.910156 22.5 38 26 38 C 29.5 38 32.667969 35.910156 35.089844 32.9375 L 38.847656 35.121094 L 37.769531 35.789063 C 36.398438 36.648438 35.949219 38.492188 36.789063 39.878906 L 40.230469 45.609375 L 29.839844 56 L 3 56 C 2.449219 56 2 55.550781 2 55 L 2 47.921875 C 2 44.011719 4.101563 40.359375 7.492188 38.402344 Z M 48.703125 34.421875 C 48.371094 34.4375 48.039063 34.539063 47.742188 34.722656 L 47.359375 34.964844 L 45.8125 35.929688 C 45.6875 36.007813 45.578125 36.101563 45.472656 36.203125 C 45.292969 36.378906 45.148438 36.585938 45.046875 36.8125 C 44.992188 36.933594 44.949219 37.058594 44.921875 37.1875 C 44.800781 37.71875 44.898438 38.261719 45.1875 38.710938 L 48.480469 43.828125 C 48.492188 43.847656 48.503906 43.859375 48.515625 43.875 C 48.660156 44.085938 48.839844 44.265625 49.054688 44.40625 C 49.0625 44.414063 49.070313 44.421875 49.078125 44.429688 L 54.199219 47.71875 C 54.527344 47.929688 54.898438 48.039063 55.28125 48.039063 C 55.417969 48.039063 55.570313 48.019531 55.71875 47.988281 C 55.933594 47.941406 56.132813 47.847656 56.316406 47.734375 C 56.390625 47.691406 56.464844 47.640625 56.53125 47.585938 C 56.703125 47.449219 56.859375 47.289063 56.980469 47.097656 L 57.632813 46.046875 L 58.183594 45.164063 C 58.679688 44.367188 58.5625 43.351563 57.902344 42.6875 L 57.449219 42.238281 L 50.21875 35.007813 C 49.804688 34.59375 49.25 34.394531 48.703125 34.421875 Z M 48.800781 36.421875 L 50.636719 38.25 L 56.484375 44.105469 L 56.425781 44.203125 L 55.28125 46.035156 L 50.160156 42.746094 L 46.875 37.628906 Z M 18.0625 38 C 17.671875 37.976563 17.292969 38.183594 17.105469 38.550781 C 16.859375 39.046875 17.058594 39.648438 17.550781 39.894531 L 25.550781 43.894531 C 25.695313 43.964844 25.847656 44 26 44 C 26.152344 44 26.308594 43.964844 26.449219 43.894531 L 34.449219 39.894531 C 34.941406 39.648438 35.140625 39.046875 34.894531 38.550781 C 34.648438 38.058594 34.046875 37.859375 33.550781 38.105469 L 26 41.882813 L 18.449219 38.105469 C 18.324219 38.042969 18.191406 38.011719 18.0625 38 Z M 6 50 C 5.445313 50 5 50.449219 5 51 L 5 53 C 5 53.550781 5.445313 54 6 54 C 6.554688 54 7 53.550781 7 53 L 7 51 C 7 50.449219 6.554688 50 6 50 Z M 11 50 C 10.445313 50 10 50.449219 10 51 L 10 53 C 10 53.550781 10.445313 54 11 54 C 11.554688 54 12 53.550781 12 53 L 12 51 C 12 50.449219 11.554688 50 11 50 Z M 16 50 C 15.445313 50 15 50.449219 15 51 L 15 53 C 15 53.550781 15.445313 54 16 54 C 16.554688 54 17 53.550781 17 53 L 17 51 C 17 50.449219 16.554688 50 16 50 Z M 21 50 C 20.445313 50 20 50.449219 20 51 L 20 53 C 20 53.550781 20.445313 54 21 54 C 21.554688 54 22 53.550781 22 53 L 22 51 C 22 50.449219 21.554688 50 21 50 Z M 26 50 C 25.445313 50 25 50.449219 25 51 L 25 53 C 25 53.550781 25.445313 54 26 54 C 26.554688 54 27 53.550781 27 53 L 27 51 C 27 50.449219 26.554688 50 26 50 Z M 31 50 C 30.445313 50 30 50.449219 30 51 L 30 53 C 30 53.550781 30.445313 54 31 54 C 31.554688 54 32 53.550781 32 53 L 32 51 C 32 50.449219 31.554688 50 31 50 Z " fill="#000000"/></g></svg>
