<svg xmlns="http://www.w3.org/2000/svg" viewBox="0 0 26 24">
  <defs>
    <style>
      .cls-1 {
        fill: #7c7c7c;
      }
    </style>
  </defs>
  <path id="Calendar-icon" class="cls-1" d="M246.063,1301a3.993,3.993,0,0,1-4.063-4v-14.4a3.992,3.992,0,0,1,4.063-4h3.25v-.8a.812.812,0,0,1,1.624,0v.8h8.125v-.8a.813.813,0,0,1,1.625,0v.8h3.25a3.992,3.992,0,0,1,4.063,4V1297a3.993,3.993,0,0,1-4.063,4Zm-2.438-4a2.481,2.481,0,0,0,2.438,2.4h17.875a2.481,2.481,0,0,0,2.437-2.4v-10.4h-22.75Zm0-14.4v2.4h22.75v-2.4a2.481,2.481,0,0,0-2.437-2.4h-3.25v.8a.813.813,0,0,1-1.625,0v-.8h-8.125v.8a.812.812,0,0,1-1.624,0v-.8h-3.25A2.481,2.481,0,0,0,243.625,1282.6Zm17.55,13.92a1.716,1.716,0,0,1-.487-1.12,1.441,1.441,0,0,1,.487-1.12,1.588,1.588,0,0,1,2.275,0,1.53,1.53,0,0,1,0,2.24,1.589,1.589,0,0,1-2.275,0Zm-4.874,0a1.53,1.53,0,0,1,0-2.24,1.588,1.588,0,0,1,2.275,0,1.532,1.532,0,0,1,0,2.24,1.589,1.589,0,0,1-2.275,0Zm-4.875,0a1.53,1.53,0,0,1,0-2.24,1.588,1.588,0,0,1,2.275,0,1.53,1.53,0,0,1,0,2.24,1.589,1.589,0,0,1-2.275,0Zm-4.875,0a1.716,1.716,0,0,1-.487-1.12,1.441,1.441,0,0,1,.487-1.12,1.588,1.588,0,0,1,2.275,0,1.53,1.53,0,0,1,0,2.24,1.589,1.589,0,0,1-2.275,0Zm14.625-4.8a1.532,1.532,0,0,1,0-2.24,1.588,1.588,0,0,1,2.275,0,1.717,1.717,0,0,1,.488,1.12,1.442,1.442,0,0,1-.488,1.12,1.587,1.587,0,0,1-2.275,0Zm-4.874,0a1.53,1.53,0,0,1,0-2.24,1.588,1.588,0,0,1,2.275,0,1.716,1.716,0,0,1,.487,1.12,1.441,1.441,0,0,1-.487,1.12,1.587,1.587,0,0,1-2.275,0Zm-4.875,0a1.53,1.53,0,0,1,0-2.24,1.588,1.588,0,0,1,2.275,0,1.53,1.53,0,0,1,0,2.24,1.587,1.587,0,0,1-2.275,0Zm-4.875,0a1.532,1.532,0,0,1,0-2.24,1.588,1.588,0,0,1,2.275,0,1.53,1.53,0,0,1,0,2.24,1.587,1.587,0,0,1-2.275,0Z" transform="translate(-242 -1277)"/>
</svg>
