<svg xmlns="http://www.w3.org/2000/svg" viewBox="0 0 27 27">
  <defs>
    <style>
      .cls-1 {
        fill: #7c7c7c;
      }
    </style>
  </defs>
  <path id="Clock-icon" class="cls-1" d="M250.237,1401.922A13.494,13.494,0,0,1,242,1389.485a13.53,13.53,0,1,1,8.237,12.437Zm-.693-22.7a11.851,11.851,0,0,0-4.325,4.327,11.954,11.954,0,0,0-.65,10.561,11.6,11.6,0,0,0,6.3,6.322,11.423,11.423,0,0,0,4.606.946,11.626,11.626,0,0,0,5.949-1.6,11.856,11.856,0,0,0,4.34-4.327,11.912,11.912,0,0,0,0-11.905,11.886,11.886,0,0,0-4.341-4.327,11.859,11.859,0,0,0-11.883,0Zm9.788,15.464-4.415-4.416a.77.77,0,0,1-.221-.664.7.7,0,0,0-.03-.119v-7.769a.832.832,0,0,1,.812-.827.851.851,0,0,1,.857.827v7.651l4.133,4.165a.809.809,0,0,1-1.136,1.152Z" transform="translate(-242 -1376)"/>
</svg>
