<svg xmlns="http://www.w3.org/2000/svg" viewBox="0 0 32.999 39.991">
  <defs>
    <style>
      .cls-1 {
        fill: #969696;
      }
    </style>
  </defs>
  <path id="Coffe-icon" class="cls-1" d="M501.957,667A8.742,8.742,0,0,1,493,658.512V643.181a2.342,2.342,0,0,1,2.4-2.274h22.323a2.343,2.343,0,0,1,2.4,2.274v2.59a6.446,6.446,0,0,1,0,12.842A8.747,8.747,0,0,1,511.166,667Zm-7.019-23.819v15.331a6.851,6.851,0,0,0,7.02,6.652h9.208a6.851,6.851,0,0,0,7.02-6.652V643.181a.452.452,0,0,0-.463-.439H495.4A.452.452,0,0,0,494.938,643.181Zm25.186,13.571a4.609,4.609,0,0,0,0-9.12Zm-23.078,1.162V645.035a.97.97,0,0,1,1.938,0v12.879a.97.97,0,0,1-1.938,0ZM508.619,639a.885.885,0,0,1-.021-1.3,4.553,4.553,0,0,0,.7-.922,3.008,3.008,0,0,0,0-3.253,4.354,4.354,0,0,0-.685-.819,3.552,3.552,0,0,1-1.218-3.018,3.946,3.946,0,0,1,1.218-2.412,1.007,1.007,0,0,1,1.37,0,.884.884,0,0,1,0,1.3,2.144,2.144,0,0,0-.659,1.291,1.827,1.827,0,0,0,.659,1.542c3.121,2.957,1.371,6.245.009,7.571a1.009,1.009,0,0,1-1.37.018Zm-5.968,0a.885.885,0,0,1-.021-1.3,4.554,4.554,0,0,0,.7-.922,3.008,3.008,0,0,0,0-3.253,4.32,4.32,0,0,0-.685-.819,3.554,3.554,0,0,1-1.217-3.018,3.94,3.94,0,0,1,1.217-2.412,1.007,1.007,0,0,1,1.37,0,.884.884,0,0,1,0,1.3,2.149,2.149,0,0,0-.659,1.291,1.827,1.827,0,0,0,.659,1.542c3.121,2.957,1.371,6.245.01,7.571a1.01,1.01,0,0,1-1.371.018Z" transform="translate(-493 -627.009)"/>
</svg>
