<svg xmlns="http://www.w3.org/2000/svg" viewBox="0 0 28 28">
  <defs>
    <style>
      .cls-1 {
        fill: #969696;
      }
    </style>
  </defs>
  <path id="Conference-icon" class="cls-1" d="M1054.536,641.276a.46.46,0,0,0,.464-.456v-2.364a.46.46,0,0,0-.464-.456h-27.071a.46.46,0,0,0-.465.456v2.364a.46.46,0,0,0,.465.456h.878v14.2h-.878a.46.46,0,0,0-.465.456V658.3a.46.46,0,0,0,.465.456h13.071v1.4l-5.069,5.063a.45.45,0,0,0,.006.645.47.47,0,0,0,.657-.005l1.8-1.8h6.148l1.8,1.8a.471.471,0,0,0,.657.005.45.45,0,0,0,.006-.645l-5.069-5.063v-1.4h13.071a.46.46,0,0,0,.464-.456v-2.364a.46.46,0,0,0-.464-.456h-.878v-14.2Zm-11.375,21.88h-4.322L1041,661Zm10.91-6.764v1.453h-26.142v-1.453h26.142Zm-24.8-.911v-14.2h23.457v14.2Zm-1.342-15.116v-1.453h26.142v1.453Z" transform="translate(-1027 -638)"/>
</svg>
