<svg xmlns="http://www.w3.org/2000/svg" viewBox="0 0 38.997 28.001">
  <defs>
    <style>
      .cls-1 {
        fill: #969696;
      }
    </style>
  </defs>
  <path id="Game-icon" class="cls-1" d="M667.447,663.033a3.976,3.976,0,0,1-1.35-2.832l-.071-2.725a55.384,55.384,0,0,1,1.421-14.161l.427-1.793v-.072a7.839,7.839,0,0,1,7.427-5.414h.534a9.542,9.542,0,0,1,2.2.286l3.838,1.148a8,8,0,0,0,2.31.323h2.594a8,8,0,0,0,2.31-.323l3.838-1.148a8.23,8.23,0,0,1,2.2-.322h.569a7.749,7.749,0,0,1,7.428,5.414v.071l.426,1.793a54.363,54.363,0,0,1,1.422,14.126l-.071,2.688a4,4,0,0,1-1.351,2.868,3.892,3.892,0,0,1-2.949.968l-.355-.036a5.988,5.988,0,0,1-4.833-3.406l-1.031-2.187a6.41,6.41,0,0,0-5.757-3.658h-5.685a6.332,6.332,0,0,0-5.65,3.478l-1.315,2.51a6.052,6.052,0,0,1-4.763,3.263l-.817.072a1.471,1.471,0,0,1-.391.035A3.8,3.8,0,0,1,667.447,663.033Zm1.777-21.19L668.8,643.6a54.306,54.306,0,0,0-1.351,13.8l.071,2.724a2.541,2.541,0,0,0,.853,1.829,2.453,2.453,0,0,0,1.883.609l.818-.072a4.65,4.65,0,0,0,3.624-2.473l1.315-2.51a7.814,7.814,0,0,1,6.93-4.267h5.685a7.851,7.851,0,0,1,7.037,4.447l1.031,2.186a4.579,4.579,0,0,0,3.7,2.617l.356.036a2.412,2.412,0,0,0,1.884-.609,2.54,2.54,0,0,0,.852-1.829l.071-2.688a55.847,55.847,0,0,0-1.315-13.768l-.426-1.757a6.447,6.447,0,0,0-6.007-4.41h-.639a6.321,6.321,0,0,0-1.813.251l-3.838,1.148a9.712,9.712,0,0,1-2.737.394h-2.594a9.712,9.712,0,0,1-2.737-.394l-3.838-1.148a6.257,6.257,0,0,0-1.777-.251H675.3A6.4,6.4,0,0,0,669.224,641.843Zm23.846,9.573a1.437,1.437,0,0,1,0-2.044l.248-.251a1.367,1.367,0,0,1,1.991,0,1.439,1.439,0,0,1,0,2.044l-.249.251a1.366,1.366,0,0,1-1.99,0Zm-16.916-.359v-3.585h-3.518a.717.717,0,0,1,0-1.435h3.518v-3.586a.711.711,0,1,1,1.421,0v3.586h3.589a.717.717,0,0,1,0,1.435h-3.589v3.585a.711.711,0,1,1-1.421,0Zm20.789-3.442a1.437,1.437,0,0,1,0-2.044l.248-.251a1.367,1.367,0,0,1,1.991,0,1.439,1.439,0,0,1,0,2.044l-.249.251a1.366,1.366,0,0,1-1.99,0Zm-7.534,0a1.437,1.437,0,0,1,0-2.044l.249-.251a1.366,1.366,0,0,1,1.99-.036,1.439,1.439,0,0,1,0,2.044l-.249.251a1.4,1.4,0,0,1-.995.43A1.52,1.52,0,0,1,689.409,647.616Zm3.66-3.8a1.437,1.437,0,0,1,0-2.044l.213-.287a1.408,1.408,0,0,1,2.026,0,1.439,1.439,0,0,1,0,2.044l-.249.251a1.4,1.4,0,0,1-.995.43A1.524,1.524,0,0,1,693.069,643.816Z" transform="translate(-666.002 -635.999)"/>
</svg>
