<svg xmlns="http://www.w3.org/2000/svg" viewBox="0 0 33 33">
  <defs>
    <style>
      .cls-1 {
        fill: #767676;
      }
    </style>
  </defs>
  <path id="Meeting-room" class="cls-1" d="M880,655.36c0-4.628-4.054-8.514-9.469-9.438a7.839,7.839,0,0,0,.344-2.276c0-5.308-5.341-9.646-11.941-9.646S847,638.338,847,643.646a8.559,8.559,0,0,0,3.017,6.406l-2.175,5.233,6.6-2.687a17.754,17.754,0,0,0,2.02.478,7.832,7.832,0,0,0-.337,2.276c0,5.308,5.334,9.646,11.934,9.646a14.343,14.343,0,0,0,4.492-.687l6.6,2.687-2.175-5.233A8.638,8.638,0,0,0,880,655.36Zm-25.558-4.2-4,1.583,1.266-3.031s-3.3-2.23-3.3-6c0-4.547,4.707-8.272,10.533-8.272s10.533,3.719,10.674,8.2a7.094,7.094,0,0,1-.344,2.115c-.4-.034-.794-.047-1.2-.047-5.024,0-9.307,2.513-11.072,6.049A18.426,18.426,0,0,1,854.442,651.157Zm18.109,11.721a12.238,12.238,0,0,1-4.418.822c-5.826,0-10.533-3.718-10.533-8.272s4.708-8.272,10.533-8.272,10.533,3.719,10.533,8.272c0,3.752-3.3,6-3.3,6l1.266,3.031Z" transform="translate(-847 -634)"/>
</svg>
