<svg xmlns="http://www.w3.org/2000/svg" viewBox="0 0 28 27.516">
  <defs>
    <style>
      .cls-1 {
        fill: #767676;
      }
    </style>
  </defs>
  <g id="Studio_Icon" data-name="Studio Icon" transform="translate(-987 -2655.494)">
    <g id="recording-icon">
      <g id="icons8-audio_wave2" transform="translate(986.151 2643.494)">
        <path id="Path_7" data-name="Path 7" class="cls-1" d="M1.355,12a.587.587,0,1,0,.164,1.163H8.494a.581.581,0,1,0,0-1.163H1.355Zm0,2.907a.587.587,0,0,0,.164,1.163H8.494a.581.581,0,1,0,0-1.163H1.355Zm0,2.907a.587.587,0,1,0,.164,1.163H8.494a.581.581,0,1,0,0-1.163H1.355Zm19.766,0a.587.587,0,1,0,.164,1.163H28.26a.581.581,0,1,0,0-1.163h-7.14ZM1.355,20.72a.587.587,0,1,0,.164,1.163H8.494a.581.581,0,1,0,0-1.163H1.355Zm19.766,0a.587.587,0,1,0,.164,1.163H28.26a.581.581,0,1,0,0-1.163h-7.14ZM1.355,23.627a.587.587,0,1,0,.164,1.163H8.494a.581.581,0,1,0,0-1.163H1.355Zm9.883,0A.587.587,0,0,0,11.4,24.79h6.976a.581.581,0,1,0,0-1.163h-7.14Zm9.883,0a.587.587,0,1,0,.164,1.163H28.26a.581.581,0,1,0,0-1.163h-7.14ZM1.355,26.534A.587.587,0,1,0,1.518,27.7H8.494a.581.581,0,1,0,0-1.163H1.355Zm9.883,0A.587.587,0,1,0,11.4,27.7h6.976a.581.581,0,1,0,0-1.163h-7.14Zm9.883,0a.587.587,0,1,0,.164,1.163H28.26a.581.581,0,1,0,0-1.163h-7.14ZM1.355,29.44A.587.587,0,0,0,1.518,30.6H8.494a.581.581,0,1,0,0-1.163H1.355Zm9.883,0A.587.587,0,0,0,11.4,30.6h6.976a.581.581,0,1,0,0-1.163h-7.14Zm9.883,0a.587.587,0,1,0,.164,1.163H28.26a.581.581,0,1,0,0-1.163h-7.14ZM1.355,32.347a.587.587,0,1,0,.164,1.163H8.494a.581.581,0,1,0,0-1.163H1.355Zm9.883,0A.587.587,0,0,0,11.4,33.51h6.976a.581.581,0,1,0,0-1.163h-7.14Zm9.883,0a.587.587,0,1,0,.164,1.163H28.26a.581.581,0,1,0,0-1.163h-7.14Z" transform="translate(0 0)"/>
      </g>
      <g id="icons8-audio_wave2-2" data-name="icons8-audio_wave2" transform="translate(986.151 2649.494)">
        <path id="Path_7-2" data-name="Path 7" class="cls-1" d="M1.355,12a.587.587,0,1,0,.164,1.163H8.494a.581.581,0,1,0,0-1.163H1.355Zm0,2.907a.587.587,0,0,0,.164,1.163H8.494a.581.581,0,1,0,0-1.163H1.355Zm0,2.907a.587.587,0,1,0,.164,1.163H8.494a.581.581,0,1,0,0-1.163H1.355Zm19.766,0a.587.587,0,1,0,.164,1.163H28.26a.581.581,0,1,0,0-1.163h-7.14ZM1.355,20.72a.587.587,0,1,0,.164,1.163H8.494a.581.581,0,1,0,0-1.163H1.355Zm19.766,0a.587.587,0,1,0,.164,1.163H28.26a.581.581,0,1,0,0-1.163h-7.14ZM1.355,23.627a.587.587,0,1,0,.164,1.163H8.494a.581.581,0,1,0,0-1.163H1.355Zm9.883,0A.587.587,0,0,0,11.4,24.79h6.976a.581.581,0,1,0,0-1.163h-7.14Zm9.883,0a.587.587,0,1,0,.164,1.163H28.26a.581.581,0,1,0,0-1.163h-7.14ZM1.355,26.534A.587.587,0,1,0,1.518,27.7H8.494a.581.581,0,1,0,0-1.163H1.355Zm9.883,0A.587.587,0,1,0,11.4,27.7h6.976a.581.581,0,1,0,0-1.163h-7.14Zm9.883,0a.587.587,0,1,0,.164,1.163H28.26a.581.581,0,1,0,0-1.163h-7.14ZM1.355,29.44A.587.587,0,0,0,1.518,30.6H8.494a.581.581,0,1,0,0-1.163H1.355Zm9.883,0A.587.587,0,0,0,11.4,30.6h6.976a.581.581,0,1,0,0-1.163h-7.14Zm9.883,0a.587.587,0,1,0,.164,1.163H28.26a.581.581,0,1,0,0-1.163h-7.14ZM1.355,32.347a.587.587,0,1,0,.164,1.163H8.494a.581.581,0,1,0,0-1.163H1.355Zm9.883,0A.587.587,0,0,0,11.4,33.51h6.976a.581.581,0,1,0,0-1.163h-7.14Zm9.883,0a.587.587,0,1,0,.164,1.163H28.26a.581.581,0,1,0,0-1.163h-7.14Z" transform="translate(0 0)"/>
      </g>
    </g>
  </g>
</svg>
