<svg xmlns="http://www.w3.org/2000/svg" viewBox="0 0 32.999 21">
  <defs>
    <style>
      .cls-1 {
        fill: #7c7c7c;
      }
    </style>
  </defs>
  <path id="Ticket-icon" class="cls-1" d="M241.129,1350v-.526a1.588,1.588,0,0,0-1.6-1.575H239v-16.8h.532a1.588,1.588,0,0,0,1.6-1.575V1329H269.87v.525a1.588,1.588,0,0,0,1.6,1.575H272v16.8h-.532a1.589,1.589,0,0,0-1.6,1.575V1350Zm-1.064-3.1a2.651,2.651,0,0,1,2.074,2.047h26.72a2.652,2.652,0,0,1,2.075-2.047v-.578H269.87v-1.049h1.065v-1.05H269.87v-1.05h1.065v-1.049H269.87v-1.05h1.065v-1.05H269.87v-1.049h1.065v-1.05H269.87v-1.049h1.065v-1.05H269.87v-1.05h1.065v-1.049H269.87v-1.05h1.065v-.578a2.649,2.649,0,0,1-2.075-2.048H242.14a2.649,2.649,0,0,1-2.074,2.048v.578h1.064v1.05h-1.064v1.049h1.064v1.05h-1.064v1.05h1.064v1.049h-1.064v1.05h1.064v1.049h-1.064v1.05h1.064v1.05h-1.064v1.049h1.064v1.05h-1.064v1.05h1.064v1.049h-1.064Zm4.258.473a1.588,1.588,0,0,1-1.6-1.575v-12.6a1.587,1.587,0,0,1,1.6-1.574h22.354a1.588,1.588,0,0,1,1.6,1.574v12.6a1.588,1.588,0,0,1-1.6,1.575Zm20.758-1.05h1.6a.529.529,0,0,0,.532-.525v-12.6a.529.529,0,0,0-.532-.525h-1.6Zm-18.1,0h17.032v-13.649H246.984ZM243.79,1333.2v12.6a.529.529,0,0,0,.533.525h1.6v-13.649h-1.6A.529.529,0,0,0,243.79,1333.2Zm17.56,9.45V1341.6h1.06v1.049Zm-12.77,0V1341.6h11.71v1.049Zm0-2.63v-1.05h13.84v1.05Zm0-2.62v-1.05h13.84v1.05Z" transform="translate(-239 -1329)"/>
</svg>
