<svg xmlns="http://www.w3.org/2000/svg" viewBox="0 0 38.003 28">
  <defs>
    <style>
      .cls-1 {
        fill: #969696;
      }
    </style>
  </defs>
  <path id="Wifi-icon" class="cls-1" d="M324.709,659.747A4.209,4.209,0,1,1,328.918,664,4.244,4.244,0,0,1,324.709,659.747Zm1.4,0a2.806,2.806,0,1,0,2.805-2.835A2.828,2.828,0,0,0,326.112,659.747Zm10.767-3.3a8.377,8.377,0,0,0-15.781,0,.72.72,0,0,1-.667.462.583.583,0,0,1-.246-.036.71.71,0,0,1-.42-.922,9.8,9.8,0,0,1,18.446,0,.725.725,0,0,1-.42.922.707.707,0,0,1-.245.045A.727.727,0,0,1,336.879,656.45Zm-21.814-4.607a.691.691,0,0,1-.245-.957,16.388,16.388,0,0,1,28.336,0,.707.707,0,0,1-.246.957.691.691,0,0,1-.947-.248,15.263,15.263,0,0,0-12.976-7.442,15.055,15.055,0,0,0-12.976,7.442.678.678,0,0,1-.6.355A.67.67,0,0,1,315.065,651.843Zm31.668-5.139a21.588,21.588,0,0,0-35.455-.036.72.72,0,0,1-.982.178.738.738,0,0,1-.176-.993,22.991,22.991,0,0,1,37.735,0,.694.694,0,0,1-.14.993.666.666,0,0,1-.42.141A.73.73,0,0,1,346.733,646.7Z" transform="translate(-310 -636)"/>
</svg>
